<?xml version="1.0" encoding="UTF-8" standalone="no"?>
<!-- Created with Inkscape (http://www.inkscape.org/) -->

<svg
   xmlns:dc="http://purl.org/dc/elements/1.1/"
   xmlns:cc="http://creativecommons.org/ns#"
   xmlns:rdf="http://www.w3.org/1999/02/22-rdf-syntax-ns#"
   xmlns:svg="http://www.w3.org/2000/svg"
   xmlns="http://www.w3.org/2000/svg"
   xmlns:sodipodi="http://sodipodi.sourceforge.net/DTD/sodipodi-0.dtd"
   xmlns:inkscape="http://www.inkscape.org/namespaces/inkscape"
   width="155.00743mm"
   height="47.70562mm"
   viewBox="0 0 155.00743 47.70562"
   version="1.1"
   id="svg7332"
   inkscape:version="0.92.1 r15371"
   sodipodi:docname="Лого кириллица.svg">
  <defs
     id="defs7326" />
  <sodipodi:namedview
     id="base"
     pagecolor="#ffffff"
     bordercolor="#666666"
     borderopacity="1.0"
     inkscape:pageopacity="0.0"
     inkscape:pageshadow="2"
     inkscape:zoom="1.6307692"
     inkscape:cx="351.42857"
     inkscape:cy="51.428563"
     inkscape:document-units="mm"
     inkscape:current-layer="layer1"
     showgrid="false"
     fit-margin-top="0"
     fit-margin-left="0"
     fit-margin-right="0"
     fit-margin-bottom="0"
     inkscape:window-width="1920"
     inkscape:window-height="1017"
     inkscape:window-x="-8"
     inkscape:window-y="-8"
     inkscape:window-maximized="1" />
  <metadata
     id="metadata7329">
    <rdf:RDF>
      <cc:Work
         rdf:about="">
        <dc:format>image/svg+xml</dc:format>
        <dc:type
           rdf:resource="http://purl.org/dc/dcmitype/StillImage" />
        <dc:title></dc:title>
      </cc:Work>
    </rdf:RDF>
  </metadata>
  <g
     inkscape:label="Layer 1"
     inkscape:groupmode="layer"
     id="layer1"
     transform="translate(-19.787361,-78.86743)">
    <g
       transform="translate(306.53483,-199.93915)"
       id="g4819"
       style="fill:#00b2a9;fill-opacity:1"
       inkscape:export-xdpi="16.505394"
       inkscape:export-ydpi="16.505394">
      <g
         aria-label="РусВáта"
         style="font-style:normal;font-variant:normal;font-weight:bold;font-stretch:normal;font-size:27.53194618px;line-height:1;font-family:Sansation;-inkscape-font-specification:'Sansation Bold';text-align:center;letter-spacing:0px;word-spacing:0px;text-anchor:middle;fill:#00b2a9;fill-opacity:1;stroke:none;stroke-width:0.26458332"
         id="text4805">
        <path
           d="m -233.83846,310.45068 v -19.22396 h 8.60373 q 5.88818,0 5.88818,5.41766 0,5.87474 -8.05256,7.11152 l -0.51084,-3.17262 q 4.8396,-0.87382 4.8396,-3.83135 0,-2.39292 -2.39292,-2.39292 h -4.81271 v 16.09167 z"
           style="font-style:normal;font-variant:normal;font-weight:bold;font-stretch:normal;font-family:Sansation;-inkscape-font-specification:'Sansation Bold';fill:#00b2a9;fill-opacity:1;stroke-width:0.26458332"
           id="path7893"
           inkscape:connector-curvature="0" />
        <path
           d="m -217.49017,296.33518 h 3.77757 l 3.56249,10.16316 3.48182,-10.16316 h 3.71036 l -5.86129,14.53225 q -1.55943,3.84479 -4.98748,5.47143 l -1.72075,-2.43324 q 2.36603,-1.03514 3.4415,-3.37428 z"
           style="font-style:normal;font-variant:normal;font-weight:bold;font-stretch:normal;font-family:Sansation;-inkscape-font-specification:'Sansation Bold';fill:#00b2a9;fill-opacity:1;stroke-width:0.26458332"
           id="path7895"
           inkscape:connector-curvature="0" />
        <path
           d="m -191.40154,310.04738 q -1.74764,0.4033 -3.6297,0.4033 -7.52827,0 -7.52827,-7.32661 0,-6.78889 7.52827,-6.78889 1.88206,0 3.6297,0.4033 v 2.8231 q -1.74764,-0.4033 -3.36084,-0.4033 -4.23465,0 -4.23465,3.96579 0,4.50351 4.23465,4.50351 1.6132,0 3.36084,-0.4033 z"
           style="font-style:normal;font-variant:normal;font-weight:bold;font-stretch:normal;font-family:Sansation;-inkscape-font-specification:'Sansation Bold';fill:#00b2a9;fill-opacity:1;stroke-width:0.26458332"
           id="path7897"
           inkscape:connector-curvature="0" />
        <path
           d="m -188.73976,310.45068 v -19.22396 h 9.00703 q 5.48488,0 5.48488,4.47663 0,3.28017 -3.57593,4.69172 3.81791,0.7125 3.81791,4.36908 0,5.68653 -6.00917,5.68653 z m 8.57684,-3.09196 q 2.36603,0 2.36603,-2.4198 0,-2.99787 -3.5356,-2.99787 h -1.07546 v -2.29881 q 4.4363,-0.73938 4.4363,-3.71036 0,-1.6132 -1.98962,-1.6132 h -5.21601 v 13.04004 z"
           style="font-style:normal;font-variant:normal;font-weight:bold;font-stretch:normal;font-family:Sansation;-inkscape-font-specification:'Sansation Bold';fill:#00b2a9;fill-opacity:1;stroke-width:0.26458332"
           id="path7899"
           inkscape:connector-curvature="0" />
        <path
           d="m -172.00282,306.05471 q 0,-4.20776 6.13016,-4.20776 1.43844,0 2.87688,0.26887 v -1.06203 q 0,-1.89551 -2.729,-1.89551 -2.31225,0 -5.13535,0.67217 v -2.8231 q 2.8231,-0.67217 5.13535,-0.67217 6.29148,0 6.29148,4.6514 v 9.4641 h -2.07027 l -1.26368,-1.26367 q -1.84173,1.26367 -4.05988,1.26367 -5.17569,0 -5.17569,-4.39597 z m 9.00704,-1.51909 q -1.34434,-0.26887 -2.87688,-0.26887 -2.56767,0 -2.56767,1.74763 0,1.88207 2.15093,1.88207 1.77452,0 3.29362,-1.10235 z m -2.729,-13.3089 h 4.28842 l -3.21295,3.48182 h -3.01131 z"
           style="font-style:normal;font-variant:normal;font-weight:bold;font-stretch:normal;font-family:Sansation;-inkscape-font-specification:'Sansation Bold';fill:#00b2a9;fill-opacity:1;stroke-width:0.26458332"
           id="path7901"
           inkscape:connector-curvature="0" />
        <path
           d="m -145.30436,296.33518 v 2.8231 h -4.4363 v 11.2924 h -3.56248 v -11.2924 h -4.4363 v -2.8231 z"
           style="font-style:normal;font-variant:normal;font-weight:bold;font-stretch:normal;font-family:Sansation;-inkscape-font-specification:'Sansation Bold';fill:#00b2a9;fill-opacity:1;stroke-width:0.26458332"
           id="path7903"
           inkscape:connector-curvature="0" />
        <path
           d="m -144.30955,306.05471 q 0,-4.20776 6.13016,-4.20776 1.43844,0 2.87687,0.26887 v -1.06203 q 0,-1.89551 -2.72899,-1.89551 -2.31226,0 -5.13536,0.67217 v -2.8231 q 2.8231,-0.67217 5.13536,-0.67217 6.29148,0 6.29148,4.6514 v 9.4641 h -2.07028 l -1.26367,-1.26367 q -1.84174,1.26367 -4.05989,1.26367 -5.17568,0 -5.17568,-4.39597 z m 9.00703,-1.51909 q -1.34433,-0.26887 -2.87687,-0.26887 -2.56768,0 -2.56768,1.74763 0,1.88207 2.15094,1.88207 1.77452,0 3.29361,-1.10235 z"
           style="font-style:normal;font-variant:normal;font-weight:bold;font-stretch:normal;font-family:Sansation;-inkscape-font-specification:'Sansation Bold';fill:#00b2a9;fill-opacity:1;stroke-width:0.26458332"
           id="path7905"
           inkscape:connector-curvature="0" />
      </g>
      <g
         style="fill:#00b2a9;fill-opacity:1;stroke-width:1.34879041"
         inkscape:export-ydpi="200"
         inkscape:export-xdpi="200"
         transform="matrix(0.74140501,0,0,0.74140501,265.6646,1039.0934)"
         id="g4817">
        <g
           style="fill:#00b2a9;fill-opacity:1;stroke-width:1.34879041"
           id="g4815">
          <path
             style="opacity:1;fill:#00b2a9;fill-opacity:1;fill-rule:nonzero;stroke:none;stroke-width:2.64566922;stroke-linecap:round;stroke-linejoin:round;stroke-miterlimit:4;stroke-dasharray:none;stroke-dashoffset:0;stroke-opacity:1"
             d="m 1117.3789,3275.8242 c -32.1955,9e-4 -58.2931,22.5041 -58.293,50.2617 0.023,2.3351 0.2337,4.6651 0.6329,6.9746 -15.9359,9.3601 -25.4728,24.9086 -25.4747,41.5333 0,27.759 26.1014,50.2621 58.2989,50.2617 4.3213,-0.01 8.6146,-0.4379 12.8027,-1.2617 -1.7828,12.9911 -5.7349,24.477 -13.793,32.5351 59.9328,0 21.8996,-97.6739 35.5586,-142.2383 -33.5734,0 -18.0188,55.7786 -20.8418,100.2617 -4.3986,1.6724 -9.0426,2.536 -13.7246,2.5489 -22.3009,1e-4 -40.3792,-18.8527 -40.3789,-42.1074 0.017,-10.9203 4.1005,-21.4064 11.3906,-29.2461 0.2805,-0.324 0.5655,-0.6441 0.8555,-0.959 0.9657,-0.978 1.9787,-1.9051 3.0332,-2.7774 1.0544,-0.8728 2.1486,-1.6906 3.2813,-2.4492 1.1329,-0.7583 2.302,-1.4571 3.5019,-2.0937 1.1997,-0.6367 2.4289,-1.2102 3.6836,-1.7188 0.041,0 0.082,-0.027 0.1231,-0.041 -0.6594,-2.9865 -1.0034,-6.0391 -1.0274,-9.1035 0,-0.039 2e-4,-0.08 -0.01,-0.1192 4e-4,-23.2543 18.0786,-42.1054 40.379,-42.1054 22.3003,0 40.3784,18.8511 40.3789,42.1054 -0.017,10.9203 -4.1005,21.4064 -11.3907,29.2461 -4.07,4.4045 -9.0114,7.8321 -14.4804,10.043 0.1647,0.6839 0.3137,1.3729 0.4453,2.0645 0.2289,1.3836 0.391,2.7771 0.4863,4.1777 0.063,0.9514 0.096,1.9057 0.098,2.8594 6.1595,-1.4542 11.9989,-3.7705 17.2871,-6.8575 15.9347,-9.3602 25.4705,-24.9093 25.4726,-41.5332 2e-4,-27.7576 -26.0974,-50.2599 -58.2929,-50.2617 z m 64.7988,62.2637 c -1.1985,4.9818 -3.1236,9.7672 -5.6992,14.2441 3.9635,6.6315 6.1206,14.3302 6.1211,22.2618 3e-4,23.2546 -18.078,42.1075 -40.3789,42.1074 v 8.1562 c 32.1969,-2e-4 58.297,-22.5051 58.2969,-50.2636 -0.019,-13.941 -6.7631,-27.1036 -18.3399,-36.5059 z"
             transform="matrix(0.35686747,0,0,0.35686747,-1114.1762,-2194.5027)"
             id="path4807"
             inkscape:connector-curvature="0" />
        </g>
      </g>
    </g>
  </g>
</svg>
